<svg width="176" height="46" viewBox="0 0 176 46" fill="none" xmlns="http://www.w3.org/2000/svg">
<path d="M58.8926 31.1018H62.7394V13.7891H58.8926V31.1018Z" fill="white"/>
<path d="M70.6299 31.4878C74.6528 31.4878 77.2928 29.0111 77.2928 24.6348C77.2928 20.4028 74.7282 17.7578 70.6299 17.7578C66.607 17.7578 63.9922 20.2345 63.9922 24.6348C63.9922 28.8909 66.5316 31.4878 70.6299 31.4878ZM70.6299 28.5061C68.895 28.5061 67.9396 27.1355 67.9396 24.6348C67.9396 22.11 68.8699 20.7394 70.6299 20.7394C72.3899 20.7394 73.3453 22.1341 73.3453 24.6348C73.3453 27.1596 72.415 28.5061 70.6299 28.5061Z" fill="white"/>
<path d="M83.5507 31.1271C85.009 31.1271 86.2159 30.55 87.0707 29.4199V31.5839C87.0707 33.3874 86.1404 33.9885 84.7576 33.9885C83.425 33.9885 82.3941 33.3633 82.2433 32.2091H78.3964C78.8741 35.3591 81.3633 36.8018 84.8079 36.8018C88.353 36.8018 90.9176 34.9984 90.9176 31.5359V18.1666H87.0707V19.3689C86.241 18.3109 85.0593 17.7578 83.5507 17.7578C80.1816 17.7578 77.9941 20.1624 77.9941 24.4665C77.9941 28.5783 80.1313 31.1271 83.5507 31.1271ZM84.481 28.1454C82.8216 28.1454 81.9416 26.8229 81.9416 24.4665C81.9416 22.0379 82.8216 20.7394 84.481 20.7394C86.1656 20.7394 87.0707 22.0619 87.0707 24.4424C87.0707 26.847 86.1907 28.1454 84.481 28.1454Z" fill="white"/>
<path d="M98.8311 31.4878C102.854 31.4878 105.494 29.0111 105.494 24.6348C105.494 20.4028 102.929 17.7578 98.8311 17.7578C94.8082 17.7578 92.1934 20.2345 92.1934 24.6348C92.1934 28.8909 94.7328 31.4878 98.8311 31.4878ZM98.8311 28.5061C97.0962 28.5061 96.1408 27.1355 96.1408 24.6348C96.1408 22.11 97.0711 20.7394 98.8311 20.7394C100.591 20.7394 101.547 22.1341 101.547 24.6348C101.547 27.1596 100.616 28.5061 98.8311 28.5061Z" fill="white"/>
<path d="M106.775 16.8669H110.623V13.7891H106.775V16.8669ZM106.775 31.1018H110.623V18.1653H106.775V31.1018Z" fill="white"/>
<path d="M116.3 36.4171V29.8046C117.105 30.9107 118.261 31.4878 119.694 31.4878C123.139 31.4878 125.377 29.0111 125.377 24.6108C125.377 20.3788 123.189 17.7578 119.694 17.7578C118.286 17.7578 117.13 18.383 116.3 19.5131V18.1666H112.453V36.4171H116.3ZM118.89 20.7394C120.524 20.7394 121.429 22.11 121.429 24.6108C121.429 27.1355 120.549 28.5061 118.89 28.5061C117.205 28.5061 116.3 27.1115 116.3 24.6108C116.3 22.11 117.18 20.7394 118.89 20.7394Z" fill="white"/>
<path d="M129.996 21.7494C129.996 21.052 130.649 20.5711 131.655 20.5711C133.013 20.5711 133.817 21.1242 134.044 22.4467H137.865C137.488 19.1765 135.024 17.7578 131.781 17.7578C128.16 17.7578 126.325 19.7776 126.325 21.9417C126.325 27.1355 134.521 24.8993 134.521 27.4C134.521 28.1935 133.843 28.6985 132.485 28.6985C131.052 28.6985 130.021 28.0493 129.845 26.847H125.998C126.501 30.045 128.965 31.4878 132.384 31.4878C135.904 31.4878 138.368 29.7324 138.368 27.1836C138.368 22.0619 129.996 24.2982 129.996 21.7494Z" fill="white"/>
<path d="M147.846 25.5941C147.846 27.2532 146.891 28.5036 145.407 28.5036C144.049 28.5036 143.396 27.6861 143.396 26.0269V18.1641H139.549V26.7723C139.549 29.9944 141.435 31.4852 143.999 31.4852C145.633 31.4852 146.966 30.812 147.846 29.3692V31.1005H151.693V18.1641H147.846V25.5941Z" fill="white"/>
<path d="M153.551 31.103H157.398V23.673C157.398 22.0139 158.278 20.7394 159.61 20.7394C160.842 20.7394 161.446 21.581 161.446 23.2161V31.103H165.267V23.673C165.267 22.0139 166.172 20.7394 167.505 20.7394C168.737 20.7394 169.315 21.581 169.315 23.2161V31.103H173.162V22.4707C173.162 19.2727 171.302 17.7578 168.787 17.7578C167.103 17.7578 165.67 18.4311 164.739 19.8979C164.06 18.4551 162.703 17.7578 161.094 17.7578C159.535 17.7578 158.253 18.407 157.398 19.8017V18.1666H153.551V31.103Z" fill="white"/>
<path opacity="0.4" d="M44.304 36.3845C48.4711 32.8258 51.0265 28.0232 51.0265 22.7386C51.0265 11.7683 40.0144 2.875 26.4303 2.875C12.8461 2.875 1.83398 11.7683 1.83398 22.7386C1.83398 33.709 12.8461 42.6023 26.4303 42.6023C30.284 42.6023 33.9308 41.8866 37.1778 40.6106C40.9921 42.8622 45.6653 44.4806 50.8264 44.1393C48.0998 43.4765 45.7545 40.7914 44.304 36.3845Z" fill="#99E39E"/>
<path opacity="0.6" d="M44.4671 22.7379C44.4671 30.8214 36.3916 37.3743 26.4298 37.3743C16.4681 37.3743 8.39258 30.8214 8.39258 22.7379C8.39258 14.6545 16.4681 8.10156 26.4298 8.10156C36.3916 8.10156 44.4671 14.6545 44.4671 22.7379Z" fill="#99E39E"/>
<path d="M37.9077 22.7372C37.9077 27.9338 32.7687 32.1463 26.4294 32.1463C20.0902 32.1463 14.9512 27.9338 14.9512 22.7372C14.9512 17.5407 20.0902 13.3281 26.4294 13.3281C32.7687 13.3281 37.9077 17.5407 37.9077 22.7372Z" fill="#99E39E"/>
</svg>
