<svg width="187" height="46" viewBox="0 0 187 46" fill="none" xmlns="http://www.w3.org/2000/svg">
<path d="M68.6177 16.6412H71.6177V28.7712H68.6177V16.6412ZM72.8077 24.1912C72.8077 21.1912 74.6477 19.4012 77.4877 19.4012C80.3277 19.4012 82.1677 21.1912 82.1677 24.1912C82.1677 27.1912 80.3677 28.9912 77.4877 28.9912C74.6077 28.9912 72.8077 27.2412 72.8077 24.1912ZM79.1577 24.1912C79.1577 22.5412 78.5077 21.5712 77.4877 21.5712C76.4677 21.5712 75.8277 22.5712 75.8277 24.1912C75.8277 25.8112 76.4577 26.7912 77.4877 26.7912C78.5177 26.7912 79.1577 25.8712 79.1577 24.2012V24.1912ZM83.2977 29.3612H86.1777C86.3148 29.6657 86.5465 29.9178 86.8384 30.08C87.1303 30.2421 87.4668 30.3057 87.7977 30.2612C88.9377 30.2612 89.5377 29.6412 89.5377 28.7412V27.0612H89.4777C89.2387 27.5761 88.8508 28.0075 88.3642 28.2999C87.8776 28.5922 87.3145 28.732 86.7477 28.7012C84.5577 28.7012 83.1077 27.0312 83.1077 24.1612C83.1077 21.2912 84.4877 19.4812 86.7877 19.4812C87.3723 19.4583 87.9499 19.6146 88.4432 19.9291C88.9365 20.2437 89.3219 20.7015 89.5477 21.2412V19.5712H92.5477V28.6712C92.5477 30.8612 90.6177 32.2212 87.7677 32.2212C85.1177 32.2212 83.4677 31.0312 83.2977 29.3712V29.3612ZM89.5477 24.1812C89.5477 22.7212 88.8777 21.8012 87.8177 21.8012C86.7577 21.8012 86.1077 22.7112 86.1077 24.1812C86.1077 25.6512 86.7477 26.4812 87.8177 26.4812C88.8877 26.4812 89.5477 25.6712 89.5477 24.1912V24.1812ZM93.6777 24.1812C93.6777 21.1812 95.5177 19.3912 98.3577 19.3912C101.198 19.3912 103.048 21.1812 103.048 24.1812C103.048 27.1812 101.248 28.9812 98.3577 28.9812C95.4677 28.9812 93.6777 27.2412 93.6777 24.1912V24.1812ZM100.028 24.1812C100.028 22.5312 99.3777 21.5612 98.3577 21.5612C97.3377 21.5612 96.7477 22.5712 96.7477 24.2012C96.7477 25.8312 97.3777 26.8012 98.3977 26.8012C99.4177 26.8012 100.028 25.8712 100.028 24.2012V24.1812ZM104.188 17.3912C104.18 17.0883 104.262 16.7899 104.424 16.5338C104.586 16.2777 104.82 16.0755 105.097 15.9527C105.374 15.83 105.681 15.7922 105.98 15.8443C106.278 15.8963 106.555 16.0358 106.774 16.2451C106.993 16.4544 107.145 16.724 107.211 17.0198C107.276 17.3156 107.253 17.6242 107.143 17.9066C107.033 18.1889 106.842 18.4323 106.593 18.6058C106.345 18.7793 106.051 18.8752 105.748 18.8812C105.547 18.895 105.345 18.8671 105.156 18.7993C104.966 18.7315 104.793 18.6253 104.646 18.4872C104.5 18.3492 104.383 18.1823 104.305 17.9971C104.226 17.812 104.186 17.6125 104.188 17.4112V17.3912ZM104.188 19.5912H107.188V28.7712H104.188V19.5912ZM118.078 24.1812C118.078 27.1812 116.748 28.8912 114.468 28.8912C113.883 28.9287 113.301 28.7858 112.8 28.4818C112.299 28.1777 111.904 27.7272 111.668 27.1912H111.608V31.7112H108.608V19.5712H111.608V21.2112H111.668C111.893 20.6663 112.281 20.2041 112.778 19.8874C113.276 19.5707 113.859 19.4149 114.448 19.4412C116.748 19.4812 118.118 21.2012 118.118 24.2012L118.078 24.1812ZM115.078 24.1812C115.078 22.7212 114.408 21.7912 113.358 21.7912C112.308 21.7912 111.638 22.7312 111.628 24.1812C111.618 25.6312 112.308 26.5612 113.358 26.5612C114.408 26.5612 115.078 25.6512 115.078 24.2012V24.1812ZM123.228 19.3812C125.718 19.3812 127.228 20.5612 127.298 22.4512H124.568C124.568 21.8012 124.028 21.3912 123.198 21.3912C122.368 21.3912 121.998 21.7112 121.998 22.1812C121.998 22.6512 122.328 22.8012 122.998 22.9412L124.918 23.3312C126.748 23.7212 127.528 24.4612 127.528 25.8512C127.528 27.7512 125.798 28.9712 123.248 28.9712C120.698 28.9712 119.028 27.7512 118.898 25.8812H121.788C121.878 26.5612 122.418 26.9612 123.298 26.9612C124.178 26.9612 124.578 26.6712 124.578 26.1912C124.578 25.7112 124.298 25.6112 123.578 25.4612L121.848 25.0912C120.058 24.7212 119.118 23.7712 119.118 22.3712C119.138 20.5712 120.748 19.4012 123.228 19.4012V19.3812ZM137.538 28.7512H134.648V27.0412H134.588C134.429 27.6153 134.079 28.1178 133.595 28.4653C133.111 28.8127 132.523 28.9842 131.928 28.9512C131.472 28.9771 131.016 28.9049 130.59 28.7394C130.165 28.5739 129.78 28.3191 129.461 27.992C129.143 27.665 128.898 27.2733 128.744 26.8436C128.59 26.4139 128.53 25.9561 128.568 25.5012V19.5712H131.568V24.8112C131.568 25.9012 132.128 26.4812 133.058 26.4812C133.276 26.4816 133.492 26.4355 133.691 26.3458C133.889 26.2561 134.067 26.1249 134.211 25.9611C134.354 25.7972 134.462 25.6045 134.525 25.3959C134.588 25.1872 134.607 24.9674 134.578 24.7512V19.5712H137.578L137.538 28.7512ZM138.988 19.5712H141.888V21.3412H141.948C142.107 20.7747 142.45 20.2769 142.922 19.9259C143.394 19.5749 143.97 19.3903 144.558 19.4012C145.157 19.3533 145.751 19.5324 146.224 19.903C146.696 20.2736 147.012 20.8084 147.108 21.4012H147.168C147.349 20.8021 147.725 20.2805 148.236 19.9184C148.746 19.5563 149.363 19.3743 149.988 19.4012C150.396 19.3875 150.802 19.4598 151.18 19.6134C151.559 19.7669 151.9 19.9984 152.183 20.2926C152.466 20.5869 152.684 20.9374 152.823 21.3213C152.961 21.7052 153.018 22.1141 152.988 22.5212V28.7712H149.988V23.3212C149.988 22.3212 149.538 21.8612 148.698 21.8612C148.511 21.8596 148.325 21.8982 148.154 21.9744C147.983 22.0506 147.83 22.1626 147.706 22.3029C147.582 22.4432 147.489 22.6084 147.434 22.7875C147.379 22.9667 147.364 23.1555 147.388 23.3412V28.7712H144.538V23.2812C144.538 22.3612 144.088 21.8612 143.268 21.8612C143.079 21.8613 142.891 21.9015 142.719 21.9792C142.546 22.057 142.391 22.1705 142.266 22.3122C142.14 22.4539 142.046 22.6207 141.989 22.8016C141.933 22.9824 141.915 23.1731 141.938 23.3612V28.7712H138.938L138.988 19.5712Z" fill="white"/>
<path d="M60.2277 17.1912C59.7188 16.0275 59.0453 14.9431 58.2277 13.9712C57.0192 12.4915 55.511 11.2846 53.8024 10.4298C52.0938 9.575 50.2235 9.09175 48.3147 9.01184C46.4059 8.93193 44.5018 9.25717 42.7277 9.96617C40.9536 10.6752 39.3498 11.7518 38.0219 13.1253C36.6939 14.4988 35.6718 16.1379 35.023 17.9349C34.3741 19.7318 34.1132 21.6458 34.2573 23.5508C34.4015 25.4559 34.9474 27.3088 35.8593 28.9876C36.7711 30.6665 38.0281 32.1332 39.5477 33.2912C40.5227 34.0491 41.6 34.6652 42.7477 35.1212C44.3567 35.7806 46.0788 36.1202 47.8177 36.1212C51.4071 36.1133 54.8469 34.6825 57.3832 32.1425C59.9194 29.6025 61.3451 26.1606 61.3477 22.5712C61.3503 20.7197 60.969 18.8878 60.2277 17.1912ZM47.8077 11.7612C49.3693 11.761 50.912 12.1023 52.3277 12.7612C51.9825 12.9103 51.6195 13.0145 51.2477 13.0712C50.0243 13.2483 48.891 13.8163 48.0169 14.6904C47.1428 15.5644 46.5748 16.6978 46.3977 17.9212C46.32 18.6073 46.0079 19.2456 45.5142 19.7284C45.0205 20.2112 44.3754 20.5088 43.6877 20.5712C42.4643 20.7483 41.3309 21.3163 40.4568 22.1904C39.5827 23.0645 39.0148 24.1978 38.8377 25.4212C38.7777 26.0736 38.4994 26.6867 38.0477 27.1612C37.2683 25.5145 36.9182 23.6973 37.0299 21.8789C37.1417 20.0605 37.7116 18.2999 38.6866 16.7609C39.6617 15.222 41.0102 13.9547 42.6068 13.077C44.2033 12.1994 45.9959 11.7398 47.8177 11.7412L47.8077 11.7612ZM39.5377 29.5712C39.6577 29.4612 39.7777 29.3612 39.8977 29.2412C40.7873 28.3787 41.3584 27.2401 41.5177 26.0112C41.5822 25.3204 41.8907 24.6752 42.3877 24.1912C42.866 23.6934 43.5097 23.3875 44.1977 23.3312C45.4211 23.1541 46.5544 22.5861 47.4285 21.712C48.3026 20.8379 48.8706 19.7046 49.0477 18.4812C49.091 17.7587 49.401 17.078 49.9177 16.5712C50.4078 16.083 51.0576 15.7883 51.7477 15.7412C52.8716 15.5865 53.9198 15.0869 54.7477 14.3112C55.6904 15.0933 56.489 16.0341 57.1077 17.0912C57.0697 17.1425 57.0261 17.1895 56.9777 17.2312C56.5004 17.7334 55.8575 18.046 55.1677 18.1112C53.943 18.2852 52.808 18.8522 51.9333 19.7268C51.0587 20.6015 50.4917 21.7365 50.3177 22.9612C50.2472 23.6496 49.9409 24.2925 49.4507 24.7809C48.9604 25.2694 48.3164 25.5733 47.6277 25.6412C46.4007 25.8169 45.2632 26.3838 44.384 27.2575C43.5049 28.1313 42.931 29.2653 42.7477 30.4912C42.6939 30.9799 42.526 31.4492 42.2577 31.8612C41.2317 31.252 40.3128 30.4784 39.5377 29.5712ZM47.8077 33.4312C46.793 33.4323 45.7831 33.2909 44.8077 33.0112C45.1414 32.3892 45.3583 31.7113 45.4477 31.0112C45.5178 30.3243 45.8227 29.6826 46.3109 29.1944C46.7991 28.7062 47.4408 28.4013 48.1277 28.3312C49.3529 28.1561 50.4885 27.589 51.3646 26.7147C52.2406 25.8405 52.8101 24.706 52.9877 23.4812C53.0578 22.7943 53.3627 22.1526 53.8509 21.6644C54.3391 21.1762 54.9808 20.8713 55.6677 20.8012C56.5897 20.6813 57.4685 20.338 58.2277 19.8012C58.6493 21.3991 58.6992 23.0723 58.3737 24.6925C58.0482 26.3127 57.3558 27.8369 56.3498 29.148C55.3438 30.459 54.0509 31.5223 52.5701 32.2561C51.0894 32.9899 49.4603 33.3748 47.8077 33.3812V33.4312Z" fill="white"/>
</svg>
