<svg width="283" height="46" viewBox="0 0 283 46" fill="none" xmlns="http://www.w3.org/2000/svg">
<path d="M46.0741 36.3655L46.0776 36.3693L38.4483 42.7386C36.884 44.0769 34.8614 44.835 32.7529 44.8723L32.7352 44.8727H6.59025C5.62241 44.9114 4.65797 44.7391 3.77157 44.3688C2.86949 43.9922 2.07256 43.421 1.44498 42.7004C0.81735 41.98 0.376696 41.1307 0.157696 40.2207C-0.0572338 39.3262 -0.0525698 38.396 0.172352 37.5033L2.18528 27.7513C2.36435 26.9024 2.83759 26.134 3.53028 25.5684L3.62899 25.4878C3.41471 25.1801 3.25798 24.8391 3.16608 24.4799C3.04416 24.0034 3.0399 23.5076 3.1522 23.0308L5.16913 13.2606L5.17224 13.2467C5.56476 11.4935 6.55344 9.91068 7.98699 8.74051L14.9721 2.90899C15.2953 2.55773 15.6501 2.23052 16.034 1.93139C17.563 0.739687 19.4657 0.0610746 21.4449 0.00100083L21.4778 0L47.6545 0.0712955C48.6213 0.0330549 49.5846 0.205526 50.47 0.575242C51.3722 0.95196 52.1691 1.5232 52.7966 2.24365C53.4242 2.96399 53.8649 3.81327 54.0839 4.72368C54.2991 5.61846 54.294 6.54794 54.0695 7.4402L49.0695 31.7254L49.0623 31.7549C48.6232 33.5596 47.5735 35.1782 46.0741 36.3655Z" fill="#0B280D"/>
<path d="M47.2462 2.31354C47.9339 2.28052 48.6201 2.40112 49.2502 2.6655C49.8802 2.92986 50.4365 3.33069 50.8747 3.83613C51.3128 4.34156 51.6205 4.93745 51.7735 5.57626C51.9263 6.21506 51.92 6.87909 51.7551 7.51516L46.7765 31.8158C46.4268 33.2597 45.5849 34.5529 44.3819 35.4938C43.1789 36.4347 41.6824 36.9704 40.1259 37.0174H14.0778C13.3899 37.0501 12.7036 36.9295 12.0733 36.6651C11.443 36.4007 10.8864 36 10.4476 35.4949C10.0088 34.9897 9.70002 34.3941 9.54584 33.7555C9.39168 33.1167 9.39638 32.4525 9.55954 31.8158L11.5698 21.9847C11.6876 21.5049 11.9689 21.0756 12.3699 20.7637C12.7708 20.4517 13.2688 20.2745 13.7866 20.2598C18.5397 20.4207 23.105 20.7603 27.3602 22.2171L28.2996 27.8387C28.3226 27.9745 28.3978 28.0972 28.5106 28.1831C28.6235 28.269 28.7658 28.312 28.9101 28.3036C29.0758 28.3008 29.2379 28.2564 29.3798 28.1748C29.5217 28.0932 29.6384 27.9772 29.718 27.8387L32.9305 22.2171L39.3557 20.2867C39.5111 20.2393 39.6509 20.1544 39.7613 20.0399C39.8717 19.9255 39.9488 19.7857 39.985 19.6344C40.0218 19.5004 40.0044 19.3582 39.9366 19.2358C39.869 19.1134 39.7555 19.0198 39.6186 18.973L33.9826 17.0513L33.0432 11.4299C33.0204 11.2933 32.9454 11.1696 32.8329 11.0823C32.7203 10.9949 32.5778 10.95 32.4327 10.9562C32.2659 10.9598 32.1032 11.0055 31.9612 11.0888C31.8193 11.172 31.7031 11.2897 31.6248 11.4299L28.4123 17.0513C23.7538 18.3227 18.9336 18.9785 14.0872 18.9998C13.8545 19.0186 13.6206 18.9845 13.4045 18.9005C13.1883 18.8166 12.9962 18.6851 12.844 18.5167C12.6918 18.3483 12.5838 18.1478 12.5288 17.9319C12.4739 17.716 12.4735 17.4908 12.5279 17.2747L14.5381 7.4436C14.8858 6.00047 15.726 4.70751 16.9274 3.76653C18.1289 2.82553 19.624 2.28963 21.1793 2.24219L47.2462 2.31354Z" fill="#99E39E"/>
<path d="M207.479 34.7824C202.649 34.7824 199.223 32.9084 198.143 29.3727L204.458 26.6503C204.906 28.0998 206.215 28.7717 208.592 28.7717C210.441 28.7717 211.936 28.2413 212.145 27.1098C212.408 25.6956 210.938 25.4835 208.695 25.1653C204.982 24.6349 199.653 23.2559 200.708 17.5635C201.521 13.1792 206.332 9.82031 211.992 9.82031C216.444 9.82031 219.87 11.6942 220.951 15.2299L214.636 17.9525C214.134 16.7856 212.953 15.831 210.576 15.831C208.915 15.831 207.918 16.326 207.735 17.316C207.486 18.6595 209.068 19.0838 211.492 19.4374C215.167 19.9678 220.201 21.3114 219.14 27.0392C218.328 31.4234 213.139 34.7824 207.479 34.7824Z" fill="white"/>
<path d="M245.855 34.2166H252.949L258.528 17.3513L259.939 31.3174C260.132 33.3327 261.834 34.3228 263.91 34.3228C266.023 34.3228 267.987 33.2974 269.021 31.1759L275.614 17.3867L274.533 34.2166H281.589L282.266 14.2753C282.351 11.376 280.601 9.82031 277.62 9.82031C274.903 9.82031 272.386 10.9871 271.177 13.6389L265.417 26.1906L264.292 13.5328C264.067 10.881 262.036 9.82031 259.395 9.82031C256.338 9.82031 253.943 11.3407 252.929 14.1693L245.855 34.2166Z" fill="white"/>
<path d="M222.191 23.4336C220.88 30.5051 223.699 34.6418 231.698 34.6418C239.66 34.6418 244.086 30.5051 245.397 23.4336L247.821 10.3516H240.84L238.449 23.2568C237.767 26.934 235.976 28.4544 232.844 28.4544C229.75 28.4544 228.523 26.934 229.204 23.2568L231.596 10.3516H224.615L222.191 23.4336Z" fill="white"/>
<path fill-rule="evenodd" clip-rule="evenodd" d="M174.693 34.2175L181.681 34.1821L182.755 28.3837H185.925C193.321 28.3837 198.139 24.9893 199.2 19.2615C200.228 13.7105 196.436 10.3516 188.889 10.3516H179.116L174.693 34.2175ZM184.983 16.3622H187.964C190.982 16.3622 192.377 17.3875 192.031 19.2615C191.657 21.2769 189.982 22.3729 186.851 22.3729H183.87L184.983 16.3622Z" fill="white"/>
<path d="M167.618 10.3516H174.599L170.176 34.2175H163.195L167.618 10.3516Z" fill="white"/>
<path fill-rule="evenodd" clip-rule="evenodd" d="M135.879 22.3011C134.562 29.4079 139.308 34.7468 147.006 34.7468C154.703 34.7468 161.428 29.4079 162.745 22.3011C164.062 15.1944 159.316 9.85547 151.618 9.85547C143.921 9.85547 137.196 15.1944 135.879 22.3011ZM155.576 22.3011C154.92 25.8368 151.699 28.5593 148.152 28.5593C144.605 28.5593 142.393 25.8368 143.048 22.3011C143.704 18.7655 146.924 16.043 150.471 16.043C154.018 16.043 156.231 18.7655 155.576 22.3011Z" fill="white"/>
<path d="M121.283 34.7468C113.661 34.7468 108.866 29.2665 110.157 22.3011C111.447 15.3358 118.198 9.85547 125.896 9.85547C130.424 9.85547 134.471 12.0476 135.579 16.043L129.331 19.013C128.608 17.2097 127.397 16.0076 124.454 16.0076C120.869 16.0076 118.001 18.6593 117.306 22.4072C116.579 26.3318 118.529 28.8422 122.377 28.8422C124.415 28.8422 125.731 28.6653 126.995 27.7461L127.58 24.4577L121.048 21.7116H134.84L134.645 22.8314H134.661L134.445 23.9934L134.432 24.0701L134.431 24.0706L133.349 29.9029C130.864 32.7314 126.415 34.7468 121.283 34.7468Z" fill="white"/>
<path fill-rule="evenodd" clip-rule="evenodd" d="M82.5176 22.3011C81.2005 29.4079 85.9466 34.7468 93.6442 34.7468C101.342 34.7468 108.067 29.4079 109.384 22.3011C110.701 15.1944 105.955 9.85547 98.2571 9.85547C90.5595 9.85547 83.8346 15.1944 82.5176 22.3011ZM102.214 22.3011C101.559 25.8368 98.3378 28.5593 94.7909 28.5593C91.244 28.5593 89.0316 25.8368 89.6869 22.3011C90.3421 18.7655 93.5635 16.043 97.1104 16.043C100.657 16.043 102.87 18.7655 102.214 22.3011Z" fill="white"/>
<path d="M73.4793 10.3516L70.1703 28.2069H81.4148L80.301 34.2175H68.1131C63.8115 34.2175 62.4689 32.0961 63.0914 28.7372L66.4986 10.3516H73.4793Z" fill="white"/>
</svg>
