<svg width="199" height="46" viewBox="0 0 199 46" fill="none" xmlns="http://www.w3.org/2000/svg">
<path d="M59.0312 31.448H73.1887V27.409H64.0631V12.1953H59.0312V31.448Z" fill="white"/>
<path d="M81.5774 28.756C79.559 28.756 78.5071 27.0865 78.5071 24.5823C78.5071 22.0781 79.559 20.3817 81.5774 20.3817C83.5958 20.3817 84.6761 22.0781 84.6761 24.5823C84.6761 27.0865 83.5958 28.756 81.5774 28.756ZM81.6058 31.8795C86.2965 31.8795 89.3668 28.7291 89.3668 24.5823C89.3668 20.4356 86.2965 17.2852 81.6058 17.2852C76.9435 17.2852 73.8164 20.4356 73.8164 24.5823C73.8164 28.7291 76.9435 31.8795 81.6058 31.8795Z" fill="white"/>
<path d="M97.4843 36.2143C99.6449 36.2143 101.55 35.7565 102.829 34.6795C103.994 33.6832 104.762 32.1753 104.762 30.1019V17.6617H100.327V19.1427H100.27C99.4175 17.9848 98.1097 17.2578 96.1766 17.2578C92.5662 17.2578 90.0645 20.1121 90.0645 24.1511C90.0645 28.3786 93.1063 30.6943 96.3756 30.6943C98.1382 30.6943 99.2469 30.0211 100.1 29.1056H100.213V30.4789C100.213 32.1484 99.389 33.1177 97.4275 33.1177C95.8923 33.1177 95.1247 32.4984 94.8689 31.7714H90.3772C90.832 34.6525 93.4759 36.2143 97.4843 36.2143ZM97.4559 27.4362C95.7217 27.4362 94.5846 26.0898 94.5846 24.0164C94.5846 21.9162 95.7217 20.5698 97.4559 20.5698C99.389 20.5698 100.412 22.1316 100.412 23.9895C100.412 25.9283 99.4743 27.4362 97.4559 27.4362Z" fill="white"/>
<path d="M113.882 28.756C111.864 28.756 110.812 27.0865 110.812 24.5823C110.812 22.0781 111.864 20.3817 113.882 20.3817C115.901 20.3817 116.981 22.0781 116.981 24.5823C116.981 27.0865 115.901 28.756 113.882 28.756ZM113.911 31.8795C118.601 31.8795 121.671 28.7291 121.671 24.5823C121.671 20.4356 118.601 17.2852 113.911 17.2852C109.248 17.2852 106.121 20.4356 106.121 24.5823C106.121 28.7291 109.248 31.8795 113.911 31.8795Z" fill="white"/>
<path d="M123.025 31.448H127.659V17.6615H123.025V31.448ZM123.025 15.7497H127.659V12.1953H123.025V15.7497Z" fill="white"/>
<path d="M129.668 35.9989H134.302V30.0211H134.359C135.268 31.179 136.605 31.8791 138.481 31.8791C142.29 31.8791 144.82 29.0248 144.82 24.555C144.82 20.4083 142.461 17.2578 138.595 17.2578C136.605 17.2578 135.183 18.0925 134.188 19.3312H134.103V17.6617H129.668V35.9989ZM137.287 28.4863C135.297 28.4863 134.16 26.9515 134.16 24.7165C134.16 22.4816 135.183 20.7852 137.202 20.7852C139.192 20.7852 140.13 22.347 140.13 24.7165C140.13 27.0592 139.049 28.4863 137.287 28.4863Z" fill="white"/>
<path d="M152.366 31.8791C156.175 31.8791 158.99 30.3173 158.99 27.3015C158.99 23.7741 155.976 23.1548 153.418 22.7509C151.57 22.4278 149.921 22.2931 149.921 21.3238C149.921 20.4621 150.802 20.0582 151.939 20.0582C153.219 20.0582 154.1 20.4352 154.271 21.6738H158.535C158.307 18.9542 156.09 17.2578 151.968 17.2578C148.528 17.2578 145.685 18.7657 145.685 21.6738C145.685 24.905 148.386 25.5513 150.916 25.9552C152.849 26.2783 154.612 26.4129 154.612 27.6516C154.612 28.5402 153.73 29.0248 152.337 29.0248C150.802 29.0248 149.836 28.3517 149.665 26.9784H145.287C145.429 30.0211 148.102 31.8791 152.366 31.8791Z" fill="white"/>
<path d="M165.283 31.8506C167.302 31.8506 168.581 31.0966 169.633 29.7503H169.718V31.4467H174.153V17.6602H169.519V25.3612C169.519 27.0038 168.552 28.1347 166.96 28.1347C165.482 28.1347 164.771 27.3 164.771 25.7921V17.6602H160.166V26.7076C160.166 29.7772 161.929 31.8506 165.283 31.8506Z" fill="white"/>
<path d="M176.17 31.4483H180.804V23.7203C180.804 22.0777 181.657 20.9199 183.106 20.9199C184.499 20.9199 185.153 21.7815 185.153 23.2625V31.4483H189.787V23.7203C189.787 22.0777 190.612 20.9199 192.09 20.9199C193.483 20.9199 194.137 21.7815 194.137 23.2625V31.4483H198.771V22.4816C198.771 19.385 197.122 17.2578 193.824 17.2578C191.948 17.2578 190.384 18.0118 189.247 19.6812H189.19C188.451 18.2003 187.001 17.2578 185.096 17.2578C182.993 17.2578 181.6 18.2003 180.69 19.6274H180.605V17.6617H176.17V31.4483Z" fill="white"/>
<path d="M30.7598 1.18238L26.1011 0L22.1751 13.8781L18.6306 1.34885L13.9718 2.53123L17.8013 16.0681L8.2628 7.03349L4.85233 10.2638L15.3149 20.1738L2.28543 16.8669L1.03711 21.2796L15.2734 24.8927C15.1105 24.2268 15.0242 23.533 15.0242 22.8201C15.0242 17.774 19.343 13.6834 24.6705 13.6834C29.998 13.6834 34.3168 17.774 34.3168 22.8201C34.3168 23.5284 34.2316 24.218 34.0707 24.8799L47.0089 28.1635L48.2571 23.7509L33.9642 20.1234L46.9945 16.8163L45.7462 12.4037L31.4538 16.031L40.9923 6.9964L37.5818 3.76609L27.2644 13.5385L30.7598 1.18238Z" fill="#F97316"/>
<path d="M34.0579 24.9297C33.6585 26.5291 32.8152 27.966 31.6582 29.1173L41.0313 37.9954L44.4418 34.765L34.0579 24.9297Z" fill="#F97316"/>
<path d="M31.5643 29.2109C30.3933 30.3438 28.9134 31.1892 27.2539 31.6248L30.6646 43.6813L35.3234 42.4989L31.5643 29.2109Z" fill="#F97316"/>
<path d="M27.0789 31.6704C26.309 31.8579 25.5019 31.9575 24.6703 31.9575C23.7793 31.9575 22.9165 31.8431 22.0974 31.6289L18.6836 43.6964L23.3423 44.8787L27.0789 31.6704Z" fill="#F97316"/>
<path d="M21.9337 31.5824C20.2996 31.1251 18.846 30.2689 17.6989 29.1328L8.30273 38.0327L11.7132 41.263L21.9337 31.5824Z" fill="#F97316"/>
<path d="M17.6188 29.0537C16.4914 27.9104 15.6702 26.4927 15.2793 24.918L2.29883 28.2124L3.54714 32.625L17.6188 29.0537Z" fill="#F97316"/>
</svg>
