<svg width="199" height="46" viewBox="0 0 199 46" fill="none" xmlns="http://www.w3.org/2000/svg">
<g clip-path="url(#clip0_319_2457)">
<path d="M58.6855 31.9753H72.9278V27.9363H63.7475V12.7227H58.6855V31.9753Z" fill="white"/>
<path d="M81.3661 29.2833C79.3356 29.2833 78.2774 27.6139 78.2774 25.1097C78.2774 22.6055 79.3356 20.9091 81.3661 20.9091C83.3966 20.9091 84.4833 22.6055 84.4833 25.1097C84.4833 27.6139 83.3966 29.2833 81.3661 29.2833ZM81.3947 32.4068C86.1135 32.4068 89.2021 29.2564 89.2021 25.1097C89.2021 20.9629 86.1135 17.8125 81.3947 17.8125C76.7045 17.8125 73.5586 20.9629 73.5586 25.1097C73.5586 29.2564 76.7045 32.4068 81.3947 32.4068Z" fill="white"/>
<path d="M97.3686 36.7416C99.5421 36.7416 101.458 36.2839 102.745 35.2068C103.918 34.2105 104.69 32.7026 104.69 30.6293V18.1891H100.228V19.67H100.171C99.3133 18.5122 97.9978 17.7852 96.053 17.7852C92.421 17.7852 89.9043 20.6394 89.9043 24.6784C89.9043 28.9059 92.9644 31.2216 96.2532 31.2216C98.0264 31.2216 99.1417 30.5485 99.9997 29.633H100.114V31.0062C100.114 32.6757 99.2847 33.6451 97.3114 33.6451C95.7671 33.6451 94.9949 33.0257 94.7375 32.2987H90.2189C90.6765 35.1799 93.3362 36.7416 97.3686 36.7416ZM97.34 27.9635C95.5955 27.9635 94.4515 26.6172 94.4515 24.5438C94.4515 22.4435 95.5955 21.0972 97.34 21.0972C99.2847 21.0972 100.314 22.6589 100.314 24.5169C100.314 26.4556 99.3705 27.9635 97.34 27.9635Z" fill="white"/>
<path d="M113.864 29.2833C111.834 29.2833 110.775 27.6139 110.775 25.1097C110.775 22.6055 111.834 20.9091 113.864 20.9091C115.895 20.9091 116.981 22.6055 116.981 25.1097C116.981 27.6139 115.895 29.2833 113.864 29.2833ZM113.893 32.4068C118.612 32.4068 121.701 29.2564 121.701 25.1097C121.701 20.9629 118.612 17.8125 113.893 17.8125C109.203 17.8125 106.057 20.9629 106.057 25.1097C106.057 29.2564 109.203 32.4068 113.893 32.4068Z" fill="white"/>
<path d="M123.062 31.9753H127.724V18.1888H123.062V31.9753ZM123.062 16.277H127.724V12.7227H123.062V16.277Z" fill="white"/>
<path d="M129.746 36.5262H134.408V30.5485H134.465C135.38 31.7063 136.724 32.4064 138.612 32.4064C142.444 32.4064 144.989 29.5522 144.989 25.0823C144.989 20.9356 142.616 17.7852 138.726 17.7852C136.724 17.7852 135.294 18.6199 134.293 19.8585H134.208V18.1891H129.746V36.5262ZM137.411 29.0136C135.409 29.0136 134.265 27.4788 134.265 25.2439C134.265 23.009 135.294 21.3126 137.325 21.3126C139.327 21.3126 140.27 22.8743 140.27 25.2439C140.27 27.5865 139.184 29.0136 137.411 29.0136Z" fill="white"/>
<path d="M152.578 32.4064C156.41 32.4064 159.242 30.8447 159.242 27.8289C159.242 24.3014 156.21 23.6821 153.636 23.2782C151.777 22.9551 150.119 22.8205 150.119 21.8511C150.119 20.9894 151.005 20.5855 152.149 20.5855C153.436 20.5855 154.323 20.9625 154.494 22.2012H158.784C158.555 19.4815 156.325 17.7852 152.178 17.7852C148.717 17.7852 145.857 19.2931 145.857 22.2012C145.857 25.4324 148.574 26.0786 151.12 26.4825C153.064 26.8056 154.837 26.9403 154.837 28.1789C154.837 29.0675 153.951 29.5522 152.55 29.5522C151.005 29.5522 150.033 28.879 149.861 27.5057H145.457C145.6 30.5485 148.288 32.4064 152.578 32.4064Z" fill="white"/>
<path d="M165.574 32.3779C167.604 32.3779 168.891 31.624 169.949 30.2776H170.035V31.974H174.496V18.1875H169.835V25.8886C169.835 27.5311 168.862 28.662 167.261 28.662C165.774 28.662 165.059 27.8273 165.059 26.3194V18.1875H160.426V27.2349C160.426 30.3046 162.199 32.3779 165.574 32.3779Z" fill="white"/>
<path d="M176.525 31.9756H181.187V24.2476C181.187 22.6051 182.045 21.4472 183.504 21.4472C184.905 21.4472 185.563 22.3089 185.563 23.7898V31.9756H190.224V24.2476C190.224 22.6051 191.054 21.4472 192.541 21.4472C193.942 21.4472 194.6 22.3089 194.6 23.7898V31.9756H199.261V23.009C199.261 19.9124 197.603 17.7852 194.285 17.7852C192.398 17.7852 190.825 18.5391 189.681 20.2086H189.624C188.88 18.7276 187.422 17.7852 185.505 17.7852C183.389 17.7852 181.988 18.7276 181.073 20.1547H180.987V18.1891H176.525V31.9756Z" fill="white"/>
<path fill-rule="evenodd" clip-rule="evenodd" d="M11.049 4.03663C9.3442 5.15898 7.80261 6.48597 6.46436 7.97976C11.933 7.50173 18.8808 8.28229 26.9471 12.0797C35.5608 16.1346 42.497 16.2717 47.3242 15.3951C46.8862 14.1464 46.3347 12.9464 45.6816 11.8056C40.1557 12.3543 33.0715 11.628 24.8155 7.74144C19.5729 5.27337 14.9516 4.25669 11.049 4.03663ZM42.4536 7.47965C38.0898 2.88902 31.7481 0 24.6897 0C22.6169 0 20.6057 0.249193 18.6884 0.717465C21.2851 1.38458 24.0437 2.36057 26.9471 3.72742C32.9917 6.57298 38.2103 7.4892 42.4536 7.47965ZM48.3563 19.7778C42.5245 20.8621 34.4715 20.6394 24.8155 16.0937C15.7883 11.844 8.60344 11.8975 3.7577 12.9114C3.50758 12.9637 3.26334 13.0186 3.02501 13.0759C2.39058 14.375 1.88416 15.7411 1.5208 17.1597C1.90889 17.062 2.30992 16.9693 2.72368 16.8826C8.60242 15.6526 16.9086 15.7061 26.9471 20.4319C35.9744 24.6817 43.1593 24.6281 48.0051 23.6142C48.1711 23.5796 48.3347 23.5437 48.4956 23.5066C48.5132 23.1529 48.522 22.7969 48.522 22.439C48.522 21.5386 48.4658 20.6506 48.3563 19.7778ZM47.7175 28.2421C41.9423 29.1927 34.1237 28.8278 24.8155 24.4459C15.7883 20.1962 8.60344 20.2497 3.7577 21.2636C2.68209 21.4886 1.71448 21.7627 0.860913 22.052C0.858586 22.1807 0.857422 22.3097 0.857422 22.439C0.857422 34.8317 11.5275 44.878 24.6897 44.878C35.7206 44.878 45.0012 37.822 47.7175 28.2421Z" fill="#7F57F1"/>
</g>
<defs>
<clipPath id="clip0_319_2457">
<rect width="199" height="46" fill="white"/>
</clipPath>
</defs>
</svg>
